<?xml version="1.0" encoding="utf-8"?>
<!-- Generator: Adobe Illustrator 23.0.0, SVG Export Plug-In . SVG Version: 6.00 Build 0)  -->
<svg version="1.1" id="Layer_1" xmlns="http://www.w3.org/2000/svg" xmlns:xlink="http://www.w3.org/1999/xlink" x="0px" y="0px"
	 viewBox="0 0 51.1 51.1" style="enable-background:new 0 0 51.1 51.1;" xml:space="preserve">
<style type="text/css">
	.st0{clip-path:url(#SVGID_2_);fill:#123B64;}
	.st1{clip-path:url(#SVGID_4_);fill:#FFFFFF;}
	.st2{fill:#FFFFFF;}
</style>
<g>
	<g>
		<g>
			<defs>
				<rect id="SVGID_1_" y="0" width="51.1" height="51.1"/>
			</defs>
			<clipPath id="SVGID_2_">
				<use xlink:href="#SVGID_1_"  style="overflow:visible;"/>
			</clipPath>
			<path class="st0" d="M51.1,25.6c0,14.1-11.4,25.6-25.6,25.6C11.4,51.1,0,39.7,0,25.6S11.4,0,25.6,0C39.7,0,51.1,11.4,51.1,25.6"
				/>
		</g>
	</g>
	<g>
		<g>
			<defs>
				<rect id="SVGID_3_" y="0" width="51.1" height="51.1"/>
			</defs>
			<clipPath id="SVGID_4_">
				<use xlink:href="#SVGID_3_"  style="overflow:visible;"/>
			</clipPath>
			<path class="st1" d="M21.3,24.3c0.7-0.6,1.1-1.6,1.1-3c0-2.4-1.4-3.7-4.3-3.7H16v7.6h2.1C19.6,25.2,20.6,24.9,21.3,24.3
				 M24.3,16.3c1.5,1.1,2.2,2.7,2.2,4.9c0,2.3-0.7,4-2.2,5.1S20.9,28,18.4,28H16v7.2h-3.9V14.7h6.1C20.8,14.7,22.9,15.2,24.3,16.3"
				/>
		</g>
	</g>
</g>
<polygon class="st2" points="33.6,14.7 33.6,32.1 41.9,32.1 41.4,35.3 29.7,35.3 29.7,14.7 "/>
</svg>
